<?xml version="1.0" encoding="utf-8" ?><svg xmlns="http://www.w3.org/2000/svg" xmlns:xlink="http://www.w3.org/1999/xlink" width="192" height="152" viewBox="0 0 192 152"><path fill="#191818" transform="scale(1.00168 0.999918)" d="M32.9155 104.936C32.8849 104.738 32.9005 104.539 32.8804 104.351C31.7853 94.0747 38.7404 84.9261 48.8634 83.0057C51.8111 82.4461 54.816 82.5598 57.8624 82.5653L68.0937 82.5889L99.6418 82.6439C105.297 82.6618 110.968 82.714 116.642 82.6816C119.398 82.6661 121.727 80.9925 122.806 78.4933C123.476 76.9424 123.307 73.3016 123.31 71.4429L123.345 57.6887C123.359 55.458 123.146 52.5483 123.578 50.4355C126.498 36.1427 143.722 30.5494 154.405 40.5393C157.125 43.0827 160.31 48.2494 160.445 52.0062C160.803 54.636 160.761 57.6011 160.759 60.2639L160.761 69.4049L160.75 82.3561C160.741 86.4145 160.802 91.7082 159.963 95.657C158.951 100.582 156.832 105.212 153.767 109.198C148.634 115.947 141.032 120.383 132.631 121.531C128.732 122.049 120.644 121.792 116.343 121.781L87.7034 121.743L62.5091 121.702C54.532 121.686 47.0237 122.78 40.2794 117.591C36.225 114.532 33.5712 109.972 32.9155 104.936Z"/><path fill="#191818" transform="scale(1.00168 0.999918)" d="M159.616 47.4237C159.646 47.6212 159.63 47.8203 159.65 48.0088C160.721 58.2873 153.744 67.4197 143.617 69.3164C140.668 69.8691 137.663 69.7484 134.617 69.7359L124.386 69.6884L92.8377 69.5597C87.1827 69.5286 81.5117 69.4632 75.8371 69.4823C73.0819 69.4913 70.7491 71.1595 69.6637 73.6562C68.9905 75.2055 69.1502 78.8468 69.1435 80.7055L69.076 94.4595C69.0573 96.6901 69.2631 99.6003 68.8264 101.712C65.8729 115.998 48.6363 121.551 37.9761 111.536C35.2619 108.987 32.0888 103.812 31.9632 100.055C31.6116 97.4248 31.6603 94.4598 31.668 91.7969L31.6874 82.656L31.7285 69.7048C31.7478 65.6465 31.6984 60.3526 32.5469 56.4058C33.5705 51.4831 35.7 46.8577 38.7749 42.8794C43.9232 36.1424 51.5352 31.7243 59.9389 30.5952C63.8396 30.0863 71.9272 30.3625 76.2282 30.3834L104.867 30.4887L130.062 30.5887C138.039 30.6227 145.549 29.5464 152.282 34.7516C156.329 37.8194 158.972 42.3862 159.616 47.4237Z"/></svg>