<?xml version="1.0" encoding="utf-8" ?><svg xmlns="http://www.w3.org/2000/svg" xmlns:xlink="http://www.w3.org/1999/xlink" width="979" height="150" viewBox="0 0 979 150"><path fill="#1A1A1A" transform="scale(0.999993 1)" d="M239.01 119L239.01 29.553L257.412 29.553L257.412 105.725L255.459 105.725L255.459 103.772L297.055 103.772L297.055 120.953L239.01 120.953L239.01 119ZM242.917 119L240.963 119L240.963 117.047L295.102 117.047L295.102 119L293.148 119L293.148 105.725L295.102 105.725L295.102 107.678L253.506 107.678L253.506 31.5061L255.459 31.5061L255.459 33.4592L240.963 33.4592L240.963 31.5061L242.917 31.5061L242.917 119ZM240.963 119L240.963 31.5061L255.459 31.5061L255.459 105.725L295.102 105.725L295.102 119L240.963 119ZM299.74 119L299.74 54.5469L317.593 54.5469L317.593 120.953L299.74 120.953L299.74 119ZM303.647 119L301.693 119L301.693 117.047L315.64 117.047L315.64 119L313.687 119L313.687 56.5L315.64 56.5L315.64 58.4531L301.693 58.4531L301.693 56.5L303.647 56.5L303.647 119ZM308.743 46.6123Q304.638 46.6123 301.594 43.5683Q298.55 40.5243 298.55 36.4194Q298.55 32.2086 301.612 29.2229Q304.652 26.2571 308.743 26.2571Q312.94 26.2571 315.922 29.24Q318.905 32.223 318.905 36.4194Q318.905 40.5101 315.94 43.5509Q312.954 46.6123 308.743 46.6123ZM308.743 42.7061Q311.307 42.7061 313.143 40.8236Q314.999 38.9206 314.999 36.4194Q314.999 33.841 313.16 32.0022Q311.321 30.1633 308.743 30.1633Q306.242 30.1633 304.339 32.0193Q302.456 33.8553 302.456 36.4194Q302.456 38.9063 304.356 40.8062Q306.256 42.7061 308.743 42.7061ZM301.693 119L301.693 56.5L315.64 56.5L315.64 119L301.693 119ZM308.743 44.6592Q305.447 44.6592 302.975 42.1873Q300.503 39.7153 300.503 36.4194Q300.503 33.032 302.975 30.6211Q305.447 28.2102 308.743 28.2102Q312.13 28.2102 314.541 30.6211Q316.952 33.032 316.952 36.4194Q316.952 39.7153 314.541 42.1873Q312.13 44.6592 308.743 44.6592ZM356.263 122.448Q346.574 122.448 339.034 117.996Q331.49 113.542 327.204 105.684Q322.937 97.8611 322.937 87.75Q322.937 77.6323 327.271 69.8056Q331.654 61.9483 339.288 57.4982Q346.915 53.0515 356.72 53.0515Q365.715 53.0515 372.911 57.6632Q380.12 62.263 384.268 70.8814Q388.398 79.3653 388.398 91.1375L388.398 93.0906L332.362 93.0906L341.217 84.9492L341.217 89.3979Q341.217 94.6044 343.421 98.358Q345.612 102.064 349.282 104.034Q353 106.03 357.544 106.03Q362.648 106.03 365.903 103.807Q369.273 101.497 371.122 97.8525L371.947 96.2273L387.88 102.971L386.936 104.837Q384.212 110.219 379.861 114.213Q375.513 118.202 369.559 120.349Q363.681 122.448 356.263 122.448ZM356.263 118.542Q363.004 118.542 368.234 116.674Q373.45 114.793 377.22 111.336Q381.047 107.822 383.45 103.073L385.193 103.955L384.432 105.753L372.103 100.535L372.864 98.7363L374.606 99.6202Q372.305 104.155 368.106 107.033Q363.854 109.936 357.544 109.936Q352.018 109.936 347.435 107.476Q342.804 104.991 340.052 100.335Q337.311 95.6661 337.311 89.3979L339.264 89.3979L340.586 90.8358L338.694 92.5753L337.372 91.1375L337.372 89.1843L386.444 89.1843L386.444 91.1375L384.491 91.1375Q384.491 80.2655 380.748 72.5752Q377.082 64.9582 370.803 60.952Q364.571 56.9578 356.72 56.9578Q347.971 56.9578 341.255 60.8729Q334.545 64.7846 330.689 71.6978Q326.844 78.6416 326.844 87.75Q326.844 96.865 330.633 103.813Q334.404 110.726 341.02 114.633Q347.641 118.542 356.263 118.542ZM338.772 83.5741L332.906 78.4421L378.21 78.4421L369.507 86.7174L369.507 82.1653Q369.507 77.6319 367.61 74.7987Q365.696 71.8754 362.732 70.4327Q359.708 68.9207 356.354 68.9207Q353.024 68.9207 349.656 70.4541Q346.345 71.9346 344.114 74.8646Q342.011 77.6604 342.011 82.1042L342.011 86.4085L338.772 83.5741ZM341.344 80.6344L340.058 82.1042L338.105 82.1042Q338.105 76.3552 341.006 72.4981Q343.841 68.7754 348.037 66.8989Q352.177 65.0144 356.354 65.0144Q360.63 65.0144 364.442 66.9204Q368.374 68.8346 370.855 72.6251Q373.413 76.4447 373.413 82.1653L371.46 82.1653L370.114 80.7498L371.976 78.9798L373.322 80.3953L373.322 82.3484L338.105 82.3484L338.105 80.3953L339.391 78.9254L341.344 80.6344ZM356.263 120.495Q347.107 120.495 340.027 116.314Q332.947 112.134 328.919 104.748Q324.891 97.363 324.891 87.75Q324.891 78.137 328.98 70.7517Q333.1 63.3665 340.271 59.1855Q347.443 55.0046 356.72 55.0046Q365.143 55.0046 371.857 59.3076Q378.601 63.6106 382.508 71.7283Q386.444 79.8154 386.444 91.1375L337.372 91.1375L339.264 89.3979Q339.264 95.1353 341.736 99.3467Q344.208 103.528 348.358 105.755Q352.509 107.983 357.544 107.983Q363.251 107.983 367.005 105.42Q370.789 102.826 372.864 98.7363L385.193 103.955Q382.63 109.021 378.54 112.774Q374.482 116.498 368.897 118.512Q363.343 120.495 356.263 120.495ZM340.058 82.1042L338.105 80.3953L373.322 80.3953L371.46 82.1653Q371.46 77.0383 369.233 73.7119Q367.035 70.355 363.587 68.6765Q360.169 66.9675 356.354 66.9675Q352.6 66.9675 348.847 68.6765Q345.093 70.355 342.56 73.6814Q340.058 77.0078 340.058 82.1042ZM391.541 119L391.541 29.553L409.394 29.553L409.394 107.429L408.613 120.953L391.541 120.953L391.541 119ZM395.448 119L393.494 119L393.494 117.047L406.77 117.047L406.77 119L404.82 118.887L405.491 107.26L407.441 107.373L405.488 107.373L405.488 31.5061L407.441 31.5061L407.441 33.4592L393.494 33.4592L393.494 31.5061L395.448 31.5061L395.448 119ZM427.186 122.448Q418.751 122.448 412.567 118.06Q406.455 113.666 403.221 105.729Q400.086 97.9557 400.086 87.75Q400.086 77.4193 403.221 69.7108Q406.459 61.8289 412.563 57.4736Q418.747 53.0515 427.186 53.0515Q436.302 53.0515 443.131 57.418Q449.947 61.7437 453.698 69.6054Q457.398 77.3591 457.398 87.75Q457.398 98.0155 453.701 105.828Q449.951 113.751 443.131 118.113Q436.298 122.448 427.186 122.448ZM427.186 118.542Q435.163 118.542 441.026 114.822Q446.901 111.065 450.17 104.157Q453.492 97.1378 453.492 87.75Q453.492 78.2434 450.173 71.2877Q446.905 64.4399 441.026 60.709Q435.16 56.9578 427.186 56.9578Q420 56.9578 414.832 60.6534Q409.644 64.3547 406.839 71.1823Q403.993 78.1832 403.993 87.75Q403.993 97.1977 406.839 104.256Q409.648 111.151 414.827 114.874Q419.996 118.542 427.186 118.542ZM423.768 105.786Q428.216 105.786 431.602 103.547Q435.044 101.27 437.069 97.2478Q439.118 93.1483 439.118 87.75Q439.118 82.3433 437.12 78.2637Q435.184 74.2279 431.738 71.9937Q428.344 69.7751 423.89 69.7751Q419.7 69.7751 416.474 71.9698Q413.195 74.2004 411.317 78.2298Q409.394 82.3541 409.394 87.75Q409.394 93.1822 411.291 97.3105Q413.171 101.343 416.404 103.606Q419.582 105.786 423.768 105.786ZM423.768 109.692Q418.371 109.692 414.164 106.806Q410.073 103.942 407.741 98.9414Q405.488 94.0366 405.488 87.75Q405.488 81.4882 407.777 76.5792Q410.109 71.5755 414.277 68.7401Q418.497 65.8689 423.89 65.8689Q429.507 65.8689 433.864 68.7162Q438.231 71.548 440.628 76.5454Q443.024 81.438 443.024 87.75Q443.024 94.0704 440.558 99.0042Q438.066 103.954 433.757 106.805Q429.391 109.692 423.768 109.692ZM393.494 119L393.494 31.5061L407.441 31.5061L407.441 107.373L406.77 119L393.494 119ZM427.186 120.495Q419.373 120.495 413.697 116.467Q408.051 112.408 405.03 104.992Q402.039 97.5767 402.039 87.75Q402.039 77.8013 405.03 70.4465Q408.051 63.0918 413.697 59.0635Q419.373 55.0046 427.186 55.0046Q435.731 55.0046 442.078 59.0635Q448.426 63.0918 451.936 70.4465Q455.445 77.8013 455.445 87.75Q455.445 97.5767 451.936 104.992Q448.426 112.408 442.078 116.467Q435.731 120.495 427.186 120.495ZM423.768 107.739Q428.803 107.739 432.679 105.176Q436.555 102.612 438.813 98.126Q441.071 93.6094 441.071 87.75Q441.071 81.8906 438.874 77.4045Q436.707 72.8879 432.801 70.355Q428.925 67.822 423.89 67.822Q419.099 67.822 415.376 70.355Q411.652 72.8879 409.547 77.4045Q407.441 81.9211 407.441 87.75Q407.441 93.6094 409.516 98.126Q411.622 102.643 415.284 105.206Q418.977 107.739 423.768 107.739ZM491.638 122.448Q481.949 122.448 474.409 117.996Q466.865 113.542 462.579 105.684Q458.312 97.8611 458.312 87.75Q458.312 77.6323 462.646 69.8056Q467.029 61.9483 474.663 57.4982Q482.29 53.0515 492.095 53.0515Q501.09 53.0515 508.286 57.6632Q515.495 62.263 519.643 70.8814Q523.773 79.3653 523.773 91.1375L523.773 93.0906L467.737 93.0906L476.592 84.9492L476.592 89.3979Q476.592 94.6044 478.796 98.358Q480.987 102.064 484.657 104.034Q488.375 106.03 492.919 106.03Q498.023 106.03 501.278 103.807Q504.648 101.497 506.497 97.8525L507.322 96.2273L523.255 102.971L522.311 104.837Q519.587 110.219 515.236 114.213Q510.888 118.202 504.934 120.349Q499.056 122.448 491.638 122.448ZM491.638 118.542Q498.379 118.542 503.609 116.674Q508.825 114.793 512.595 111.336Q516.422 107.822 518.825 103.073L520.568 103.955L519.807 105.753L507.478 100.535L508.239 98.7363L509.981 99.6202Q507.68 104.155 503.481 107.033Q499.229 109.936 492.919 109.936Q487.393 109.936 482.81 107.476Q478.179 104.991 475.427 100.335Q472.686 95.6661 472.686 89.3979L474.639 89.3979L475.961 90.8358L474.069 92.5753L472.747 91.1375L472.747 89.1843L521.819 89.1843L521.819 91.1375L519.866 91.1375Q519.866 80.2655 516.123 72.5752Q512.457 64.9582 506.178 60.952Q499.946 56.9578 492.095 56.9578Q483.346 56.9578 476.63 60.8729Q469.92 64.7846 466.063 71.6978Q462.219 78.6416 462.219 87.75Q462.219 96.865 466.008 103.813Q469.779 110.726 476.395 114.633Q483.016 118.542 491.638 118.542ZM474.147 83.5741L468.281 78.4421L513.585 78.4421L504.882 86.7174L504.882 82.1653Q504.882 77.6319 502.985 74.7987Q501.071 71.8754 498.107 70.4327Q495.083 68.9207 491.729 68.9207Q488.399 68.9207 485.031 70.4541Q481.72 71.9346 479.489 74.8646Q477.386 77.6604 477.386 82.1042L477.386 86.4085L474.147 83.5741ZM476.719 80.6344L475.433 82.1042L473.48 82.1042Q473.48 76.3552 476.381 72.4981Q479.216 68.7754 483.412 66.8989Q487.552 65.0144 491.729 65.0144Q496.005 65.0144 499.817 66.9204Q503.749 68.8346 506.23 72.6251Q508.788 76.4447 508.788 82.1653L506.835 82.1653L505.489 80.7498L507.351 78.9798L508.697 80.3953L508.697 82.3484L473.48 82.3484L473.48 80.3953L474.766 78.9254L476.719 80.6344ZM491.638 120.495Q482.482 120.495 475.402 116.314Q468.322 112.134 464.294 104.748Q460.265 97.363 460.265 87.75Q460.265 78.137 464.355 70.7517Q468.475 63.3665 475.646 59.1855Q482.818 55.0046 492.095 55.0046Q500.518 55.0046 507.232 59.3076Q513.976 63.6106 517.883 71.7283Q521.819 79.8154 521.819 91.1375L472.747 91.1375L474.639 89.3979Q474.639 95.1353 477.111 99.3467Q479.583 103.528 483.733 105.755Q487.884 107.983 492.919 107.983Q498.626 107.983 502.38 105.42Q506.164 102.826 508.239 98.7363L520.568 103.955Q518.005 109.021 513.915 112.774Q509.857 116.498 504.272 118.512Q498.718 120.495 491.638 120.495ZM475.433 82.1042L473.48 80.3953L508.697 80.3953L506.835 82.1653Q506.835 77.0383 504.608 73.7119Q502.41 70.355 498.962 68.6765Q495.544 66.9675 491.729 66.9675Q487.975 66.9675 484.222 68.6765Q480.468 70.355 477.935 73.6814Q475.433 77.0078 475.433 82.1042ZM526.916 119L526.916 54.5469L543.846 54.5469L544.769 67.9379L544.769 120.953L526.916 120.953L526.916 119ZM530.823 119L528.869 119L528.869 117.047L542.816 117.047L542.816 119L540.863 119L540.863 68.0051L542.816 68.0051L540.868 68.1395L540.074 56.6344L542.023 56.5L542.023 58.4531L528.869 58.4531L528.869 56.5L530.823 56.5L530.823 119ZM569.336 119L569.336 85.0339L587.189 85.0339L587.189 120.953L569.336 120.953L569.336 119ZM573.242 119L571.289 119L571.289 117.047L585.235 117.047L585.235 119L583.282 119L583.282 86.9871L585.235 86.9871L585.235 88.9402L571.289 88.9402L571.289 86.9871L573.242 86.9871L573.242 119ZM569.336 86.9871Q569.336 79.9417 567.754 76.2513Q566.285 72.8224 563.807 71.4975Q561.168 70.0728 557.648 70.0191Q551.486 69.9397 548.206 73.9684Q544.769 78.1906 544.769 86.3767L544.769 88.3298L535.614 88.3298L535.614 86.3767Q535.614 76.0672 538.694 68.6871Q541.846 61.137 547.691 57.1183Q553.558 53.0515 561.523 53.0515Q569.451 53.0515 575.208 56.2936Q581.107 59.5972 584.209 66.5028Q587.252 73.2032 587.189 83.764L587.189 88.9402L569.336 88.9402L569.336 86.9871ZM573.242 86.9871L571.289 86.9871L571.289 85.0339L585.235 85.0339L585.235 86.9871L583.282 86.9871L583.282 83.7404Q583.341 74.0374 580.646 68.1036Q578.072 62.375 573.291 59.6971Q568.427 56.9578 561.523 56.9578Q554.779 56.9578 549.904 60.3372Q545.007 63.7038 542.299 70.1918Q539.52 76.8497 539.52 86.3767L537.567 86.3767L537.567 84.4236L542.816 84.4236L542.816 86.3767L540.863 86.3767Q540.863 76.8016 545.177 71.5023Q549.649 66.0095 557.708 66.1133Q562.183 66.1816 565.649 68.0527Q569.335 70.0238 571.345 74.7126Q573.242 79.1399 573.242 86.9871ZM528.869 119L528.869 56.5L542.023 56.5L542.816 68.0051L542.816 119L528.869 119ZM571.289 119L571.289 86.9871L585.235 86.9871L585.235 119L571.289 119ZM571.289 86.9871Q571.289 79.5408 569.549 75.4819Q567.81 71.4231 564.728 69.7751Q561.676 68.1272 557.678 68.0662Q550.567 67.9746 546.692 72.7354Q542.816 77.4961 542.816 86.3767L537.567 86.3767Q537.567 76.4585 540.497 69.4395Q543.426 62.4204 548.797 58.7278Q554.169 55.0046 561.523 55.0046Q568.939 55.0046 574.249 57.9954Q579.59 60.9861 582.428 67.3032Q585.296 73.6204 585.235 83.7522L585.235 86.9871L571.289 86.9871ZM593.666 119L593.666 29.553L611.519 29.553L611.519 107.429L610.738 120.953L593.666 120.953L593.666 119ZM597.573 119L595.619 119L595.619 117.047L608.895 117.047L608.895 119L606.945 118.887L607.616 107.26L609.566 107.373L607.613 107.373L607.613 31.5061L609.566 31.5061L609.566 33.4592L595.619 33.4592L595.619 31.5061L597.573 31.5061L597.573 119ZM629.311 122.448Q620.876 122.448 614.692 118.06Q608.58 113.666 605.346 105.729Q602.211 97.9557 602.211 87.75Q602.211 77.4193 605.346 69.7108Q608.584 61.8289 614.688 57.4736Q620.872 53.0515 629.311 53.0515Q638.427 53.0515 645.256 57.418Q652.072 61.7437 655.823 69.6054Q659.523 77.3591 659.523 87.75Q659.523 98.0155 655.826 105.828Q652.076 113.751 645.256 118.113Q638.423 122.448 629.311 122.448ZM629.311 118.542Q637.288 118.542 643.151 114.822Q649.026 111.065 652.295 104.157Q655.617 97.1378 655.617 87.75Q655.617 78.2434 652.298 71.2877Q649.03 64.4399 643.151 60.709Q637.285 56.9578 629.311 56.9578Q622.125 56.9578 616.957 60.6534Q611.769 64.3547 608.964 71.1823Q606.118 78.1832 606.118 87.75Q606.118 97.1977 608.964 104.256Q611.773 111.151 616.952 114.874Q622.121 118.542 629.311 118.542ZM625.893 105.786Q630.341 105.786 633.727 103.547Q637.169 101.27 639.194 97.2478Q641.243 93.1483 641.243 87.75Q641.243 82.3433 639.245 78.2637Q637.309 74.2279 633.863 71.9937Q630.469 69.7751 626.015 69.7751Q621.825 69.7751 618.599 71.9698Q615.32 74.2004 613.442 78.2298Q611.519 82.3541 611.519 87.75Q611.519 93.1822 613.416 97.3105Q615.296 101.343 618.529 103.606Q621.707 105.786 625.893 105.786ZM625.893 109.692Q620.496 109.692 616.289 106.806Q612.198 103.942 609.866 98.9414Q607.613 94.0366 607.613 87.75Q607.613 81.4882 609.902 76.5792Q612.234 71.5755 616.402 68.7401Q620.622 65.8689 626.015 65.8689Q631.632 65.8689 635.989 68.7162Q640.356 71.548 642.753 76.5454Q645.149 81.438 645.149 87.75Q645.149 94.0704 642.683 99.0042Q640.191 103.954 635.882 106.805Q631.516 109.692 625.893 109.692ZM595.619 119L595.619 31.5061L609.566 31.5061L609.566 107.373L608.895 119L595.619 119ZM629.311 120.495Q621.498 120.495 615.822 116.467Q610.176 112.408 607.155 104.992Q604.164 97.5767 604.164 87.75Q604.164 77.8013 607.155 70.4465Q610.176 63.0918 615.822 59.0635Q621.498 55.0046 629.311 55.0046Q637.856 55.0046 644.203 59.0635Q650.551 63.0918 654.061 70.4465Q657.57 77.8013 657.57 87.75Q657.57 97.5767 654.061 104.992Q650.551 112.408 644.203 116.467Q637.856 120.495 629.311 120.495ZM625.893 107.739Q630.928 107.739 634.804 105.176Q638.68 102.612 640.938 98.126Q643.196 93.6094 643.196 87.75Q643.196 81.8906 640.999 77.4045Q638.832 72.8879 634.926 70.355Q631.05 67.822 626.015 67.822Q621.224 67.822 617.501 70.355Q613.777 72.8879 611.672 77.4045Q609.566 81.9211 609.566 87.75Q609.566 93.6094 611.641 98.126Q613.747 102.643 617.409 105.206Q621.102 107.739 625.893 107.739ZM693.763 122.448Q684.074 122.448 676.534 117.996Q668.99 113.542 664.704 105.684Q660.437 97.8611 660.437 87.75Q660.437 77.6323 664.771 69.8056Q669.154 61.9483 676.788 57.4982Q684.415 53.0515 694.22 53.0515Q703.215 53.0515 710.411 57.6632Q717.62 62.263 721.768 70.8814Q725.898 79.3653 725.898 91.1375L725.898 93.0906L669.862 93.0906L678.717 84.9492L678.717 89.3979Q678.717 94.6044 680.921 98.358Q683.112 102.064 686.782 104.034Q690.5 106.03 695.044 106.03Q700.148 106.03 703.403 103.807Q706.773 101.497 708.622 97.8525L709.447 96.2273L725.38 102.971L724.436 104.837Q721.712 110.219 717.361 114.213Q713.013 118.202 707.059 120.349Q701.181 122.448 693.763 122.448ZM693.763 118.542Q700.504 118.542 705.734 116.674Q710.95 114.793 714.72 111.336Q718.547 107.822 720.95 103.073L722.693 103.955L721.932 105.753L709.603 100.535L710.364 98.7363L712.106 99.6202Q709.805 104.155 705.606 107.033Q701.354 109.936 695.044 109.936Q689.518 109.936 684.935 107.476Q680.304 104.991 677.552 100.335Q674.811 95.6661 674.811 89.3979L676.764 89.3979L678.086 90.8358L676.194 92.5753L674.872 91.1375L674.872 89.1843L723.944 89.1843L723.944 91.1375L721.991 91.1375Q721.991 80.2655 718.248 72.5752Q714.582 64.9582 708.303 60.952Q702.071 56.9578 694.22 56.9578Q685.471 56.9578 678.755 60.8729Q672.045 64.7846 668.188 71.6978Q664.344 78.6416 664.344 87.75Q664.344 96.865 668.133 103.813Q671.904 110.726 678.52 114.633Q685.141 118.542 693.763 118.542ZM676.272 83.5741L670.406 78.4421L715.71 78.4421L707.007 86.7174L707.007 82.1653Q707.007 77.6319 705.11 74.7987Q703.196 71.8754 700.232 70.4327Q697.208 68.9207 693.854 68.9207Q690.524 68.9207 687.156 70.4541Q683.845 71.9346 681.614 74.8646Q679.511 77.6604 679.511 82.1042L679.511 86.4085L676.272 83.5741ZM678.844 80.6344L677.558 82.1042L675.605 82.1042Q675.605 76.3552 678.506 72.4981Q681.341 68.7754 685.537 66.8989Q689.677 65.0144 693.854 65.0144Q698.13 65.0144 701.942 66.9204Q705.874 68.8346 708.355 72.6251Q710.913 76.4447 710.913 82.1653L708.96 82.1653L707.614 80.7498L709.476 78.9798L710.822 80.3953L710.822 82.3484L675.605 82.3484L675.605 80.3953L676.891 78.9254L678.844 80.6344ZM693.763 120.495Q684.607 120.495 677.527 116.314Q670.447 112.134 666.419 104.748Q662.39 97.363 662.39 87.75Q662.39 78.137 666.48 70.7517Q670.6 63.3665 677.771 59.1855Q684.943 55.0046 694.22 55.0046Q702.643 55.0046 709.357 59.3076Q716.101 63.6106 720.008 71.7283Q723.944 79.8154 723.944 91.1375L674.872 91.1375L676.764 89.3979Q676.764 95.1353 679.236 99.3467Q681.708 103.528 685.858 105.755Q690.009 107.983 695.044 107.983Q700.751 107.983 704.505 105.42Q708.289 102.826 710.364 98.7363L722.693 103.955Q720.13 109.021 716.04 112.774Q711.982 116.498 706.397 118.512Q700.843 120.495 693.763 120.495ZM677.558 82.1042L675.605 80.3953L710.822 80.3953L708.96 82.1653Q708.96 77.0383 706.733 73.7119Q704.535 70.355 701.087 68.6765Q697.669 66.9675 693.854 66.9675Q690.1 66.9675 686.347 68.6765Q682.593 70.355 680.06 73.6814Q677.558 77.0078 677.558 82.1042ZM738.258 85.7664Q738.258 75.0928 742.443 68.1283Q746.666 61.1225 753.29 57.695Q759.847 54.3027 767.066 54.3027L769.019 54.3027L769.019 71.5757L767.066 71.5757Q761.719 71.5757 756.938 73.0733Q752.376 74.4749 749.563 77.5854Q746.894 80.5371 746.894 85.5527L746.894 87.4196L738.258 87.8097L738.258 85.7664ZM742.164 85.7664L740.211 85.7664L740.123 83.8152L744.853 83.6016L744.941 85.5527L742.988 85.5527Q742.988 79.0327 746.666 74.9653Q750.201 71.0569 755.771 69.3457Q761.122 67.6694 767.066 67.6694L767.066 69.6226L765.113 69.6226L765.113 56.2559L767.066 56.2559L767.066 58.209Q760.797 58.209 755.085 61.1644Q749.442 64.0845 745.791 70.1403Q742.164 76.1762 742.164 85.7664ZM729.041 119L729.041 54.5469L746.894 54.5469L746.894 120.953L729.041 120.953L729.041 119ZM732.948 119L730.994 119L730.994 117.047L744.941 117.047L744.941 119L742.988 119L742.988 56.5L744.941 56.5L744.941 58.4531L730.994 58.4531L730.994 56.5L732.948 56.5L732.948 119ZM740.211 85.7664Q740.211 75.6345 744.117 69.1343Q748.054 62.6035 754.188 59.4297Q760.322 56.2559 767.066 56.2559L767.066 69.6226Q761.42 69.6226 756.355 71.2095Q751.289 72.7659 748.115 76.2754Q744.941 79.7849 744.941 85.5527L740.211 85.7664ZM730.994 119L730.994 56.5L744.941 56.5L744.941 119L730.994 119ZM799.505 147.564Q792.621 147.564 787.145 146.425Q781.708 145.319 777.893 143.683Q774.08 142.05 771.935 140.564L770.568 139.618L777.548 124.984L779.364 125.989Q781.004 126.897 783.831 128.176Q786.584 129.409 790.431 130.313Q794.246 131.238 799.017 131.238Q803.921 131.238 807.716 129.313Q811.378 127.455 813.499 123.482Q815.68 119.424 815.68 112.927L815.68 54.5469L833.533 54.5469L833.533 112.5Q833.533 123.647 829.267 131.498Q824.99 139.465 817.226 143.527Q809.604 147.564 799.505 147.564ZM799.505 143.658Q808.633 143.658 815.415 140.066Q822.116 136.56 825.835 129.634Q829.626 122.654 829.626 112.5L829.626 56.5L831.579 56.5L831.579 58.4531L817.633 58.4531L817.633 56.5L819.586 56.5L819.586 112.927Q819.586 120.407 816.945 125.321Q814.244 130.381 809.483 132.796Q804.855 135.144 799.017 135.144Q793.779 135.144 789.537 134.116Q785.327 133.127 782.221 131.735Q779.25 130.39 777.472 129.406L778.418 127.698L780.181 128.538L774.81 139.799L773.047 138.958L774.158 137.353Q775.98 138.614 779.431 140.093Q782.879 141.571 787.94 142.601Q793.023 143.658 799.505 143.658ZM797.4 119.671Q788.344 119.671 781.532 115.578Q774.703 111.441 770.911 104.02Q767.187 96.6375 767.187 86.9565Q767.187 76.8285 770.897 69.2799Q774.684 61.6076 781.503 57.3462Q788.322 53.0515 797.4 53.0515Q805.651 53.0515 811.804 57.4085Q817.924 61.6863 821.257 69.397Q824.53 76.97 824.53 87.1702Q824.53 96.7458 821.244 104.026Q817.902 111.43 811.764 115.555Q805.623 119.671 797.4 119.671ZM797.4 115.765Q804.435 115.765 809.585 112.313Q814.8 108.809 817.684 102.419Q820.624 95.9051 820.624 87.1702Q820.624 77.778 817.671 70.9467Q814.778 64.2532 809.546 60.5964Q804.408 56.9578 797.4 56.9578Q789.449 56.9578 783.573 60.6587Q777.696 64.3319 774.403 71.0028Q771.094 77.7365 771.094 86.9565Q771.094 95.7082 774.389 102.242Q777.677 108.675 783.544 112.229Q789.427 115.765 797.4 115.765ZM801.214 103.985Q805.359 103.985 808.425 101.837Q811.564 99.6099 813.359 95.7464Q815.191 91.7766 815.191 86.5903Q815.191 81.385 813.336 77.4799Q811.542 73.6214 808.389 71.4833Q805.31 69.3784 801.092 69.3784Q796.659 69.3784 793.326 71.5118Q789.969 73.6598 788.074 77.5052Q786.134 81.4127 786.078 86.6115Q786.134 91.7374 788.102 95.701Q790.032 99.5605 793.439 101.805Q796.789 103.985 801.214 103.985ZM801.214 107.892Q795.63 107.892 791.29 105.067Q787.007 102.246 784.603 97.4381Q782.237 92.6738 782.172 86.5692Q782.237 80.4765 784.57 75.778Q786.947 70.9564 791.22 68.2216Q795.516 65.4722 801.092 65.4722Q806.518 65.4722 810.581 68.2501Q814.629 70.9948 816.864 75.8033Q819.098 80.5041 819.098 86.5903Q819.098 92.6345 816.902 97.3928Q814.669 102.196 810.667 105.035Q806.591 107.892 801.214 107.892ZM799.505 145.611Q792.822 145.611 787.543 144.513Q782.294 143.445 778.662 141.888Q775.03 140.332 773.047 138.958L778.418 127.698Q780.127 128.644 783.026 129.956Q785.956 131.268 789.984 132.214Q794.012 133.191 799.017 133.191Q804.388 133.191 808.6 131.054Q812.811 128.918 815.222 124.402Q817.633 119.916 817.633 112.927L817.633 56.5L831.579 56.5L831.579 112.5Q831.579 123.15 827.551 130.566Q823.553 138.012 816.321 141.797Q809.118 145.611 799.505 145.611ZM797.4 117.718Q788.885 117.718 782.538 113.904Q776.19 110.058 772.65 103.131Q769.14 96.1729 769.14 86.9565Q769.14 77.2825 772.65 70.1414Q776.19 62.9697 782.538 59.0024Q788.885 55.0046 797.4 55.0046Q805.029 55.0046 810.675 59.0024Q816.351 62.9697 819.464 70.1719Q822.577 77.374 822.577 87.1702Q822.577 96.3254 819.464 103.222Q816.351 110.119 810.675 113.934Q805.029 117.718 797.4 117.718ZM801.214 105.938Q805.975 105.938 809.546 103.436Q813.116 100.903 815.13 96.5696Q817.145 92.2056 817.145 86.5903Q817.145 80.9446 815.1 76.6416Q813.086 72.3081 809.485 69.8667Q805.914 67.4253 801.092 67.4253Q796.087 67.4253 792.273 69.8667Q788.458 72.3081 786.322 76.6416Q784.186 80.9446 784.125 86.5903Q784.186 92.2056 786.352 96.5696Q788.519 100.903 792.364 103.436Q796.21 105.938 801.214 105.938ZM931.127 119.71L895.97 29.553L914.739 29.553L951.209 120.953L931.612 120.953L931.127 119.71ZM934.766 118.29L932.946 119L932.946 117.047L948.327 117.047L948.327 119L946.513 119.724L911.601 32.2299L913.415 31.5061L913.415 33.4592L898.828 33.4592L898.828 31.5061L900.647 30.7965L934.766 118.29ZM861.278 118.276L896.68 29.553L915.449 29.553L879.807 120.953L860.209 120.953L861.278 118.276ZM864.906 119.724L863.092 119L863.092 117.047L878.472 117.047L878.472 119L876.653 118.29L910.772 30.7965L912.591 31.5061L912.591 33.4592L898.004 33.4592L898.004 31.5061L899.818 32.2299L864.906 119.724ZM877.587 97.5156L877.587 82.6841L933.862 82.6841L933.862 99.4688L877.587 99.4688L877.587 97.5156ZM881.494 97.5156L879.541 97.5156L879.541 95.5625L931.909 95.5625L931.909 97.5156L929.956 97.5156L929.956 84.6372L931.909 84.6372L931.909 86.5903L879.541 86.5903L879.541 84.6372L881.494 84.6372L881.494 97.5156ZM932.946 119L898.828 31.5061L913.415 31.5061L948.327 119L932.946 119ZM863.092 119L898.004 31.5061L912.591 31.5061L878.472 119L863.092 119ZM879.541 97.5156L879.541 84.6372L931.909 84.6372L931.909 97.5156L879.541 97.5156ZM954.01 29.553L972.412 29.553L972.412 120.953L954.01 120.953L954.01 29.553Z"/><path fill="#191818" transform="scale(0.999993 1)" d="M145.943 57.1265C145.971 57.3073 145.955 57.4893 145.973 57.6617C146.915 67.0648 140.52 75.3926 131.276 77.0933C128.585 77.5889 125.845 77.4685 123.066 77.4468L113.734 77.3691L84.9589 77.146C79.8009 77.0986 74.6285 77.0198 69.4525 77.0184C66.9393 77.0174 64.8059 78.5352 63.8075 80.8147C63.1882 82.2292 63.3218 85.5596 63.3093 87.2592L63.2016 99.8367C63.1771 101.876 63.3549 104.538 62.9496 106.468C60.2077 119.522 44.467 124.543 34.7772 115.349C32.31 113.008 29.4331 108.266 29.3312 104.83C29.0193 102.423 29.0737 99.7119 29.0896 97.2767L29.1381 88.9177L29.219 77.0744C29.2502 73.3632 29.2231 68.5219 30.0101 64.9155C30.9604 60.4173 32.9183 56.1946 35.7363 52.5669C40.4549 46.4237 47.4128 42.4086 55.0819 41.404C58.6416 40.9515 66.0176 41.2316 69.9405 41.2644L96.0627 41.4567L119.043 41.633C126.319 41.6909 133.173 40.7313 139.296 45.5137C142.978 48.3324 145.373 52.5177 145.943 57.1265Z"/><path fill="#191818" transform="scale(0.999993 1)" d="M29.7333 105.49C29.7063 105.309 29.7217 105.126 29.7044 104.952C28.759 95.4966 35.1907 87.1237 44.4866 85.4158C47.1935 84.9181 49.949 85.0399 52.743 85.0623L62.1273 85.1426L91.0631 85.3739C96.2499 85.4228 101.451 85.5034 106.656 85.5061C109.184 85.5077 111.329 83.9819 112.333 81.69C112.957 80.2676 112.823 76.9188 112.836 75.2096L112.947 62.5619C112.972 60.5107 112.794 57.8339 113.202 55.8935C115.963 42.7672 131.793 37.7225 141.535 46.9697C144.015 49.3243 146.906 54.0937 147.008 57.5491C147.321 59.9694 147.266 62.6957 147.249 65.1444L147.198 73.5501L147.114 85.4595C147.082 89.1914 147.108 94.0597 146.316 97.686C145.359 102.209 143.389 106.455 140.554 110.102C135.809 116.279 128.81 120.314 121.098 121.323C117.519 121.777 110.101 121.494 106.157 121.459L79.8887 121.26L56.7805 121.077C49.4639 121.018 42.571 121.98 36.4148 117.17C32.7137 114.334 30.3056 110.125 29.7333 105.49Z"/></svg>